<svg xmlns="http://www.w3.org/2000/svg" viewBox="0 0 169.68 109.01"><defs><style>.cls-1,.cls-2{fill:#cb4450;}.cls-1{stroke:#fff;stroke-miterlimit:10;}</style></defs><g id="Layer_2" data-name="Layer 2"><g id="Layer_1-2" data-name="Layer 1"><path class="cls-1" d="M56.18,41.36C54.9,49.2,55.7,56,55.5,62.78c-.14,4.71-.16,9.43-.21,14.14a11.85,11.85,0,0,1-4.72,9.41c-2.18,1.8-4.86,3.2-7.37,2.11-2.71-1.18-1.49-4.51-1.5-6.9-.08-21.81,0-43.63-.11-65.44,0-1.88,1.11-5-1.8-5.24-2.71-.25-3.94,2.32-4.37,5a38.23,38.23,0,0,0-.28,5.87q0,30.36,0,60.73a28.08,28.08,0,0,1-.27,4.68,2.06,2.06,0,0,1-1.42,1.39,2,2,0,0,1-1.64-1.12,18.54,18.54,0,0,1-.57-4.58q0-31.54,0-63.08c0-8.88,1.71-11.31,9.43-13.5a6.35,6.35,0,0,0,2.61-1.78c5.52-5.07,9.38-5.24,14.43.2C69,16.84,80,29.35,91.29,41.58c2.91,3.16,1.65,4.94-1,6.77C85.39,51.68,80,51,75.26,46c-8.53-9.15-16.87-18.52-25.33-27.76-1-1.15-1.87-3.46-3.73-2.41-1.39.78-.73,2.85-.73,4.33q-.06,29.49,0,59c0,1.41-.81,3.55,1,4.06s2.73-1.37,3.7-2.77c1.29-1.87,1.15-4.07,1.16-6.22,0-11.2,0-22.4.07-33.61,0-2.35-1.24-5.61,1.6-6.8S57,35.9,58.52,37.52c3.9,4,7.56,8.29,11.37,12.4,7.82,8.45,16.85,9.4,25.94,2.77,1.25-.92,2.61-2.89,4-.91s-.59,3.2-1.66,4.34c-7.23,7.67-21.49,6.73-30.08-2C64.26,50.16,60.56,46.05,56.18,41.36ZM51.8,5.44c-2.42.11-4-.15-4.76,1.56s.71,2.46,1.51,3.35Q63.33,26.73,78.18,43.06A8.32,8.32,0,0,0,83.8,46a3.15,3.15,0,0,0,3.27-1.45c.57-1.23-.82-1.89-1.52-2.67Q70.43,25,55.3,8.16C54.05,6.78,52.77,5.37,51.8,5.44Z"/><path class="cls-1" d="M112,42.71a2.77,2.77,0,0,0-3,1.56c-3.07,4.52-5.55,3.8-8.77-.21-5.26-6.55-5.46-6.32,0-12.34,6.27-6.94,12.54-13.87,18.73-20.9,1-1.11,3.24-2.14,1.93-4.17s-3.58-1.71-5.36-.76a15.48,15.48,0,0,0-3.63,3.4c-6,6.64-12,13.33-18,20-1.34,1.48-3,3.91-4.79,1.57-1.57-2,.93-3.37,2.06-4.64,6.22-7,12.46-14,18.8-20.81,5.85-6.31,8.77-6.43,15-.76a6.39,6.39,0,0,0,3.31,1.56c6.15,1.19,8.53,4.15,8.55,11.1q.12,28.57,0,57.15c0,6.51-3.23,11.83-7.68,13.58-4.79,1.89-6.56.59-6.56-5,0-20.62.05-41.24,0-61.86,0-1.84.9-4.45-.88-5.36-1.93-1-2.92,1.7-4.09,2.95-4.84,5.18-9.52,10.54-14.26,15.84-1.52,1.69-3.21,3.13-.74,5.72s3.63.41,5.31-1c2.42-2,3.88-7.24,7.32-5.3,3,1.7,1.25,6.49,1.29,9.88.16,12.76.09,25.53,0,38.29,0,2.35.87,6.27-2.15,6.16-2.83-.11-1.89-4.08-1.92-6.41-.17-12-.16-24-.24-35.93C112.26,44.87,112.09,43.75,112,42.71Zm14.4,3.82c0,11,0,22,0,32.94,0,1.46-.52,3.49,1.35,4,1.57.38,2.59-1.16,3.36-2.44,1.64-2.72,1.73-5.91,1.74-9q.06-26.17,0-52.36a25.55,25.55,0,0,0-.72-5.78c-.5-2.11-2-3.35-4-3.17-2.36.21-1.79,2.51-1.8,4.13C126.38,25.35,126.4,35.94,126.41,46.53Z"/><path class="cls-2" d="M10.23,99.07v9.85h-1V101l-3.87,6.63H4.87L1,101.08v7.84H0V99.07H.86l4.28,7.3,4.23-7.3Z"/><path class="cls-2" d="M14.42,107.91a4.42,4.42,0,0,1-1.07-3.2V99.07H14.4v5.6a3.65,3.65,0,0,0,.77,2.56,2.9,2.9,0,0,0,2.24.85,2.92,2.92,0,0,0,2.25-.85,3.7,3.7,0,0,0,.77-2.56v-5.6h1v5.64a4.42,4.42,0,0,1-1.07,3.2,3.94,3.94,0,0,1-3,1.1A4,4,0,0,1,14.42,107.91Z"/><path class="cls-2" d="M24.58,99.07h1.05v9h5.51v.9H24.58Z"/><path class="cls-2" d="M33.87,100H30.41v-.9h8v.9H34.91v9h-1Z"/><path class="cls-2" d="M40,99.07h1v9.85H40Z"/><path class="cls-2" d="M45.92,108.36a4.75,4.75,0,0,1-1.84-1.8,5.24,5.24,0,0,1,0-5.13,4.71,4.71,0,0,1,1.85-1.8A5.44,5.44,0,0,1,48.58,99a5.54,5.54,0,0,1,2,.36,4.26,4.26,0,0,1,1.58,1.07l-.66.66a3.93,3.93,0,0,0-2.92-1.17,4.26,4.26,0,0,0-2.12.54,3.9,3.9,0,0,0-1.5,1.46,4.3,4.3,0,0,0,0,4.17,3.83,3.83,0,0,0,1.5,1.46,4.26,4.26,0,0,0,2.12.54,3.87,3.87,0,0,0,2.92-1.19l.66.67a4.38,4.38,0,0,1-1.58,1.07,5.68,5.68,0,0,1-4.68-.27Z"/><path class="cls-2" d="M55.85,108.35A4.72,4.72,0,0,1,54,106.56a5.24,5.24,0,0,1,0-5.13,4.72,4.72,0,0,1,1.86-1.79A5.34,5.34,0,0,1,58.5,99a5.43,5.43,0,0,1,2.64.64,4.78,4.78,0,0,1,1.85,1.8,5.24,5.24,0,0,1,0,5.13,4.78,4.78,0,0,1-1.85,1.8,5.43,5.43,0,0,1-2.64.65A5.34,5.34,0,0,1,55.85,108.35Zm4.76-.8a3.84,3.84,0,0,0,1.48-1.46,4.24,4.24,0,0,0,.53-2.09,4.19,4.19,0,0,0-.53-2.09,3.8,3.8,0,0,0-1.48-1.47,4.49,4.49,0,0,0-4.23,0,3.83,3.83,0,0,0-1.49,1.47,4.09,4.09,0,0,0-.54,2.09,4.15,4.15,0,0,0,.54,2.09,3.87,3.87,0,0,0,1.49,1.46,4.49,4.49,0,0,0,4.23,0Z"/><path class="cls-2" d="M72.72,108.92l-2.25-3.17a6.53,6.53,0,0,1-.78,0H67v3.12H66V99.07h3.69a4.44,4.44,0,0,1,3,.9,3.08,3.08,0,0,1,1.07,2.48,3,3,0,0,1-2.25,3.09l2.4,3.38Zm-.83-4.66a2.21,2.21,0,0,0,.78-1.81,2.25,2.25,0,0,0-.78-1.84,3.39,3.39,0,0,0-2.23-.64H67v4.94h2.62A3.39,3.39,0,0,0,71.89,104.26Z"/><path class="cls-2" d="M82.81,100a3.4,3.4,0,0,1,0,5,4.48,4.48,0,0,1-3,.89H77.21v3.11h-1V99.07h3.69A4.43,4.43,0,0,1,82.81,100Zm-.74,4.29a2.24,2.24,0,0,0,.77-1.81,2.27,2.27,0,0,0-.77-1.84,3.42,3.42,0,0,0-2.24-.64H77.21v4.93h2.62A3.48,3.48,0,0,0,82.07,104.26Z"/><path class="cls-2" d="M90,99.07h1v9.85H90Z"/><path class="cls-2" d="M102.44,99.07v9.85h-.85l-6.34-8v8h-1V99.07h.86l6.35,8v-8Z"/><path class="cls-2" d="M112.59,104h1v3.75a4.6,4.6,0,0,1-1.63.93,6,6,0,0,1-2,.33,5.48,5.48,0,0,1-2.66-.65,4.78,4.78,0,0,1-1.85-1.8,5.18,5.18,0,0,1,0-5.13,4.78,4.78,0,0,1,1.85-1.8A5.5,5.5,0,0,1,110,99a6,6,0,0,1,2.07.35,4.26,4.26,0,0,1,1.59,1.07l-.65.66a4.06,4.06,0,0,0-3-1.16,4.43,4.43,0,0,0-2.16.53,3.81,3.81,0,0,0-1.51,1.47,4.23,4.23,0,0,0,0,4.17,3.83,3.83,0,0,0,1.5,1.46,4.66,4.66,0,0,0,4.73-.22Z"/><path class="cls-2" d="M123.5,108v.9h-7V99.07h6.76v.9h-5.72v3.5h5.1v.89h-5.1V108Z"/><path class="cls-2" d="M134.18,99.07v9.85h-.86l-6.33-8v8h-1V99.07h.85l6.35,8v-8Z"/><path class="cls-2" d="M144.35,108v.9h-7V99.07h6.75v.9h-5.71v3.5h5.09v.89h-5.09V108Z"/><path class="cls-2" d="M153.53,108.92l-2.26-3.17a6.53,6.53,0,0,1-.78,0h-2.65v3.12h-1V99.07h3.69a4.44,4.44,0,0,1,2.95.9,3.08,3.08,0,0,1,1.07,2.48,3,3,0,0,1-2.25,3.09l2.41,3.38Zm-.83-4.66a2.24,2.24,0,0,0,.77-1.81,2.27,2.27,0,0,0-.77-1.84,3.44,3.44,0,0,0-2.24-.64h-2.62v4.94h2.62A3.44,3.44,0,0,0,152.7,104.26Z"/><path class="cls-2" d="M157,99.07H158v9.85H157Z"/><path class="cls-2" d="M167.4,106.29h-5.49l-1.18,2.63h-1.08l4.5-9.85h1l4.5,9.85h-1.1Zm-.38-.85-2.36-5.29-2.37,5.29Z"/></g></g></svg>